<svg xmlns="http://www.w3.org/2000/svg" xml:space="preserve" width="128" height="128" viewBox="0 0 135.467 135.467"><path fill="none" stroke="#000" stroke-linecap="round" stroke-linejoin="round" stroke-width="1.039" d="M79.245 63.815c-15.65-10.11-31.848-2.853-46.814-18.698-3.486-3.698-1.46 41.463 17.272 58.576 13.696 12.5 34.843 11.106 41.974-1.042 7.13-12.149 3.218-28.729-12.432-38.836zM53.031 78.178c15.141 14.261 30.811 22.712 51.41 25.881" style="fill:#0c4;fill-opacity:1;stroke:#000;stroke-width:4.5514;stroke-dasharray:none;stroke-opacity:1"/><path d="M74.41 43.009a6.677 6.677 0 0 1-6.677 6.676 6.677 6.677 0 0 1-6.676-6.676 6.677 6.677 0 0 1 6.676-6.677 6.677 6.677 0 0 1 6.677 6.677zm-6.677-20.03c-11.058 0-20.03 8.539-20.03 19.056 0 12.101 13.354 31.279 18.257 37.902a2.194 2.194 0 0 0 3.547 0c4.903-6.62 18.256-25.79 18.256-37.902 0-10.517-8.971-19.056-20.03-19.056z" style="fill:#d52727;fill-opacity:1;stroke:#000;stroke-width:4.45108;stroke-linecap:round;stroke-linejoin:round"/></svg>