<svg xmlns="http://www.w3.org/2000/svg" width="512" height="512" viewBox="0 0 512 512" version="1.1">
    <path d="" stroke="none" fill="#000" fill-rule="evenodd" />
    <path
        d="M 228.627 2.075 C 193.030 8.341, 157.953 27.930, 134.792 54.476 C 91.049 104.614, 83.700 169.787, 114.476 234.651 C 124.476 255.726, 133.827 270.439, 160.422 306.937 C 169.815 319.827, 192.608 352.002, 211.073 378.437 C 232.673 409.360, 245.832 427.302, 247.971 428.750 C 252.482 431.803, 259.518 431.803, 264.029 428.750 C 266.170 427.301, 279.309 409.376, 300.927 378.409 C 319.392 351.960, 339.932 322.935, 346.570 313.909 C 374.986 275.278, 384.670 260.356, 395.509 238.500 C 403.643 222.099, 409.641 205.282, 413.164 189 C 416.239 174.792, 416.530 140.329, 413.688 127 C 403.445 78.961, 372.673 39.346, 328.226 16.977 C 315.295 10.470, 297.044 4.486, 282.581 2.014 C 266.977 -0.654, 243.983 -0.628, 228.627 2.075 M 243.500 31.073 C 195.593 35.537, 153.442 67.038, 134.541 112.500 C 131.416 120.015, 128.027 135.107, 126.987 146.137 C 124.673 170.674, 130.625 198.296, 143.983 225.013 C 153.286 243.622, 163.887 259.737, 192.981 299.500 C 201.029 310.500, 218.358 334.912, 231.490 353.750 C 244.621 372.587, 255.663 388, 256.026 388 C 256.389 388, 267.415 372.587, 280.529 353.750 C 293.643 334.913, 311.624 309.600, 320.486 297.500 C 348.075 259.833, 358.417 244.085, 367.679 225.644 C 388.867 183.456, 391.121 141.149, 374.084 105.407 C 350.333 55.579, 298.309 25.965, 243.500 31.073 M 242.047 78.138 C 214.518 82.702, 189.081 103.017, 178.233 129.102 C 170.920 146.688, 169.958 168.935, 175.744 186.667 C 184.884 214.676, 207.104 235.668, 235.500 243.119 C 246.696 246.056, 265.304 246.056, 276.500 243.119 C 298.741 237.283, 318.496 222.077, 329.701 202.167 C 341.746 180.765, 343.340 152.121, 333.767 129.102 C 324.763 107.452, 305.674 89.453, 283.729 81.924 C 269.924 77.187, 255.619 75.888, 242.047 78.138 M 243.272 109.437 C 225.071 113.847, 210.069 128.405, 204.562 147 C 202.218 154.915, 202.393 168.827, 204.940 177.072 C 212.528 201.632, 238.503 218.079, 263.555 214.184 C 283.636 211.062, 301.184 196.092, 307.060 177.072 C 309.607 168.827, 309.782 154.915, 307.438 147 C 301.786 127.916, 285.922 112.972, 267.201 109.097 C 260.365 107.682, 249.901 107.831, 243.272 109.437 M 159 370.721 C 158.175 371.031, 146.836 378.004, 133.803 386.217 C 112.369 399.724, 109.909 401.556, 108.053 405.391 C 105.574 410.511, 105.500 412.710, 107.629 418.030 C 108.818 421.003, 110.773 423.122, 114.879 425.891 C 121.896 430.623, 242.038 506.518, 247.500 509.668 C 253.885 513.352, 259.192 512.846, 267.624 507.750 C 288.718 495.003, 398.642 425.111, 401.012 422.939 C 406.952 417.495, 407.193 407.465, 401.519 401.792 C 400.154 400.427, 388.811 392.857, 376.313 384.970 C 356.213 372.286, 353.006 370.584, 348.544 370.226 C 344.469 369.900, 342.845 370.271, 340.092 372.161 C 334.661 375.888, 332.615 379.351, 332.615 384.817 C 332.615 392.404, 335.194 395.441, 348.903 404 C 355.510 408.125, 360.932 411.725, 360.952 412 C 361.013 412.823, 257.370 478, 256 478 C 254.625 478, 150.982 412.818, 151.056 412 C 151.081 411.725, 156.507 408.125, 163.113 404 C 176.815 395.445, 179.385 392.416, 179.385 384.817 C 179.385 379.374, 177.328 375.869, 172.010 372.250 C 168.807 370.070, 162.659 369.347, 159 370.721"
        stroke="none" fill="#000" fill-rule="evenodd" />
</svg>