<svg xmlns="http://www.w3.org/2000/svg" width="512" height="512" viewBox="0 0 512 512" version="1.1"><path d="" stroke="none" fill="#000" fill-rule="evenodd"/><path d="M 156.078 156.422 L -0.342 312.845 6.986 320.672 C 16.536 330.872, 19.373 336.907, 19.356 346.992 C 19.340 357.194, 16.948 362.228, 7.510 371.926 C 3.379 376.171, -0 380.063, -0 380.575 C -0 381.788, 130.217 512, 131.431 512 C 131.940 512, 135.829 508.621, 140.074 504.490 C 149.772 495.052, 154.806 492.660, 165.008 492.644 C 175.093 492.627, 181.128 495.464, 191.328 505.014 L 199.156 512.343 355.750 355.750 L 512.343 199.156 505.014 191.328 C 495.464 181.128, 492.627 175.093, 492.644 165.008 C 492.660 154.806, 495.052 149.772, 504.490 140.074 C 508.621 135.829, 512 131.937, 512 131.425 C 512 130.212, 381.783 0, 380.569 -0 C 380.060 -0, 376.171 3.379, 371.926 7.510 C 362.228 16.948, 357.194 19.340, 346.992 19.356 C 336.960 19.373, 330.861 16.526, 320.856 7.158 C 316.651 3.221, 313.051 -0, 312.855 -0 C 312.658 -0, 242.109 70.390, 156.078 156.422 M 178.089 178.411 L 41.681 314.821 44.376 320.513 C 51.972 336.555, 51.941 356.932, 44.297 373.294 L 41.590 379.088 87.226 424.724 L 132.862 470.360 139.681 467.270 C 148.314 463.359, 154.956 461.996, 165.299 462.015 C 174.942 462.032, 183.589 463.884, 191.488 467.624 L 197.180 470.319 333.750 333.750 L 470.319 197.180 467.624 191.488 C 460.028 175.445, 460.059 155.069, 467.703 138.706 L 470.410 132.912 424.782 87.285 L 379.155 41.657 373.308 44.281 C 356.407 51.866, 335.712 51.955, 321.014 44.507 C 318.293 43.128, 315.713 42, 315.282 42 C 314.850 42, 253.114 103.385, 178.089 178.411 M 299.999 99.501 L 289.534 110.002 301.001 121.501 L 312.467 133 323.234 122.266 L 334.001 111.533 322.767 100.266 C 316.588 94.070, 311.292 89, 310.998 89 C 310.705 89, 305.755 93.725, 299.999 99.501 M 344.994 144.506 L 334.523 155.012 345.762 166.250 L 357 177.489 367.738 166.750 L 378.477 156.011 367.506 145.006 C 361.471 138.953, 356.293 134, 355.999 134 C 355.705 134, 350.753 138.728, 344.994 144.506 M 283.225 193.274 L 266.973 209.549 271.988 214.489 L 277.003 219.428 282.275 214.223 L 287.546 209.017 300.502 222.002 L 313.459 234.988 319.737 228.765 L 326.016 222.542 313.009 209.509 L 300.002 196.475 305.224 191.252 L 310.446 186.030 306.015 181.515 C 303.578 179.032, 301.110 177, 300.530 177 C 299.951 177, 292.164 184.323, 283.225 193.274 M 389.739 188.760 L 379 199.533 390.505 211.005 L 402.011 222.478 412.750 211.739 L 423.489 201 411.983 189.494 L 400.478 177.988 389.739 188.760 M 246.238 230.261 L 232.002 244.523 250 262.500 L 267.998 280.477 282.988 265.512 L 297.978 250.547 293.267 245.764 L 288.557 240.981 279.469 250.030 L 270.382 259.080 268.503 257.003 C 266.639 254.943, 266.684 254.865, 274.043 247.457 L 281.462 239.988 276.737 235.263 L 272.012 230.538 264.511 237.989 C 257.407 245.046, 256.920 245.348, 255.284 243.713 C 253.649 242.078, 254.003 241.538, 261.997 233.503 L 270.436 225.020 266.010 220.510 C 263.575 218.029, 261.334 216, 261.029 216 C 260.724 216, 254.068 222.418, 246.238 230.261 M 219.095 257.404 L 212.748 263.808 213.460 275.654 L 214.172 287.500 207.807 281.248 L 201.442 274.996 195.492 281.008 L 189.542 287.021 207.511 305.011 L 225.480 323 231.464 317.016 L 237.448 311.032 233.344 306.766 C 229.818 303.100, 227.013 296.963, 228.889 297.018 C 229.225 297.028, 233.775 297.688, 239 298.486 L 248.500 299.936 255.769 292.724 C 259.767 288.758, 262.692 285.401, 262.269 285.265 C 261.846 285.129, 254.189 283.965, 245.253 282.679 C 236.317 281.392, 228.817 280.151, 228.586 279.919 C 228.355 279.688, 227.840 273.087, 227.443 265.250 C 227.045 257.412, 226.432 251, 226.081 251 C 225.730 251, 222.586 253.882, 219.095 257.404 M 177.820 301.580 C 171.615 303.489, 162.414 311.917, 159.349 318.497 C 156.575 324.455, 156.203 333.849, 158.523 339.400 C 160.581 344.326, 166.479 350.676, 171.432 353.299 C 177.304 356.409, 188.823 356.339, 194.845 353.158 C 204.816 347.890, 212 337.310, 212 327.894 C 212 323.065, 211.869 322.802, 209.750 323.370 C 208.512 323.701, 205.137 323.979, 202.250 323.986 L 197 324 197 327.923 C 197 335.691, 188.672 341.561, 181.754 338.670 C 177.993 337.099, 174.281 332.966, 173.370 329.338 C 171.800 323.081, 176.941 316.581, 184.337 315.472 L 189 314.773 189 307.386 L 189 300 185.750 300.070 C 183.963 300.108, 180.394 300.787, 177.820 301.580 M 132.526 343.974 C 129.275 347.259, 126.814 350.158, 127.057 350.415 C 127.301 350.671, 135.348 358.797, 144.939 368.472 L 162.379 386.063 168.189 380.313 C 171.385 377.150, 174 374.094, 174 373.521 C 174 372.494, 139.971 338, 138.958 338 C 138.672 338, 135.777 340.688, 132.526 343.974 M 103.015 373.485 L 86.553 389.969 90.985 394.485 C 93.422 396.968, 95.870 399, 96.424 399 C 96.978 399, 99.590 396.874, 102.227 394.276 L 107.023 389.552 120.014 402.514 L 133.004 415.476 139.240 409.240 L 145.476 403.004 132.514 390.014 L 119.552 377.023 124.276 372.227 C 126.874 369.590, 129 367.014, 129 366.504 C 129 365.515, 120.963 357, 120.030 357 C 119.726 357, 112.069 364.418, 103.015 373.485" stroke="none" fill="#000" fill-rule="evenodd"/></svg>