<svg xmlns="http://www.w3.org/2000/svg" width="512" height="512" viewBox="0 0 512 512" version="1.1">
    <path d="" stroke="none" fill="#000" fill-rule="evenodd" />
    <path
        d="M 228 1.100 C 196.295 4.653, 167.399 13.457, 138.500 28.370 C 113.775 41.128, 94.776 55.030, 74.903 74.903 C 55.030 94.776, 41.128 113.775, 28.370 138.500 C 8.726 176.568, 0 212.708, 0 256 C 0 299.292, 8.726 335.432, 28.370 373.500 C 41.128 398.225, 55.030 417.224, 74.903 437.097 C 94.776 456.970, 113.775 470.872, 138.500 483.630 C 176.568 503.274, 212.708 512, 256 512 C 299.292 512, 335.432 503.274, 373.500 483.630 C 398.225 470.872, 417.224 456.970, 437.097 437.097 C 474.379 399.816, 498.118 354.816, 508.089 302.527 C 509.135 297.042, 510.283 289.041, 510.642 284.746 C 511 280.451, 511.677 276.700, 512.146 276.410 C 512.616 276.119, 513 266.432, 513 254.882 C 513 243.332, 512.614 234.121, 512.141 234.413 C 511.669 234.704, 510.992 231.456, 510.637 227.194 C 509.076 208.477, 502.407 181.732, 493.990 160.434 C 489.566 149.239, 477.473 126.119, 470.534 115.589 C 451.906 87.321, 424.679 60.094, 396.411 41.466 C 385.881 34.527, 362.761 22.434, 351.566 18.010 C 329.743 9.386, 306.188 3.577, 282.789 1.049 C 271.576 -0.162, 238.994 -0.132, 228 1.100 M 228.567 52.558 C 208.778 55.252, 181.582 63.643, 163.991 72.481 C 146.396 81.322, 126.159 96.078, 111.365 110.856 C 72.251 149.925, 51 201.023, 51 256 C 51 311.045, 72.089 361.895, 111.097 400.903 C 150.105 439.911, 200.955 461, 256 461 C 311.045 461, 361.895 439.911, 400.903 400.903 C 439.911 361.895, 461 311.045, 461 256 C 461 200.955, 439.911 150.105, 400.903 111.097 C 368.694 78.889, 327.244 58.355, 282.699 52.540 C 268.391 50.673, 242.354 50.681, 228.567 52.558 M 230 82.119 C 164.523 92.656, 111.275 137.224, 89.683 199.561 C 86.168 209.712, 82.723 224.658, 81.457 235.250 L 80.770 241 91.635 241.007 C 100.593 241.012, 103.002 241.344, 105.359 242.898 C 114.839 249.148, 114.076 263.176, 103.980 268.248 C 101.372 269.559, 98.032 269.997, 90.652 269.998 L 80.804 270 81.486 276.250 C 87.098 327.651, 117.390 375.866, 161.950 404.321 C 183.048 417.794, 210.591 427.623, 235.250 430.478 L 241 431.144 241 420.284 C 241 410.988, 241.324 408.792, 243.250 405.036 C 248.745 394.320, 263.255 394.320, 268.750 405.036 C 270.673 408.786, 271 410.991, 271 420.212 C 271 428.186, 271.326 430.995, 272.250 430.980 C 272.938 430.969, 276.650 430.518, 280.500 429.976 C 338.425 421.834, 390.192 383.680, 414.925 330.902 C 422.732 314.241, 428.992 292.094, 430.514 275.750 L 431.235 268 420.367 267.998 C 407.897 267.997, 403.977 266.652, 400.270 261.102 C 397.368 256.759, 397.231 249.773, 399.960 245.299 C 403.126 240.106, 407.044 238.703, 419.801 238.195 L 431.103 237.744 430.605 235.122 C 430.331 233.680, 429.811 230.475, 429.449 228 C 421.429 173.149, 382.179 120.981, 331 97.146 C 313.848 89.158, 292.745 83.120, 276.385 81.520 L 269.270 80.824 268.797 91.456 C 268.292 102.812, 267.382 105.133, 261.797 109.302 C 258.170 112.010, 249.885 112.051, 246.306 109.379 C 240.467 105.020, 239.526 102.656, 239.159 91.430 C 238.777 79.744, 239.594 80.575, 230 82.119 M 161.301 155.080 C 158.302 156.564, 156.515 158.370, 155.051 161.395 C 152.744 166.159, 152.527 168.598, 154.046 172.685 C 154.622 174.233, 176.109 196.547, 201.796 222.270 C 252.249 272.794, 251.604 272.263, 259.750 270.065 C 262.776 269.249, 268.942 263.593, 291.683 240.777 C 310.378 222.019, 320.098 211.554, 320.556 209.690 C 323.333 198.395, 313.594 188.658, 302.310 191.448 C 300.485 191.899, 291.873 199.734, 277.737 213.804 L 255.975 235.465 215.737 195.279 C 193.607 173.177, 174.233 154.622, 172.685 154.046 C 168.571 152.517, 166.009 152.750, 161.301 155.080 M 0.425 256 C 0.425 267.825, 0.569 272.663, 0.746 266.750 C 0.923 260.837, 0.923 251.162, 0.746 245.250 C 0.569 239.338, 0.425 244.175, 0.425 256"
        stroke="none" fill="#000" fill-rule="evenodd" />
</svg>